<svg width="15" height="14" viewBox="0 0 15 14" fill="none" xmlns="http://www.w3.org/2000/svg">
<path d="M12.0836 4.84529L2.78658 13.5274C2.51246 13.7833 2.17743 13.9113 1.78149 13.9113C1.38555 13.9113 1.05052 13.7833 0.776406 13.5274C0.502291 13.2714 0.365234 12.9585 0.365234 12.5888C0.365234 12.219 0.502291 11.9061 0.776406 11.6501L10.0734 2.96809H6.213C5.81706 2.96809 5.47823 2.83654 5.1965 2.57345C4.91477 2.31035 4.7739 1.99393 4.7739 1.62418C4.7739 1.25443 4.91477 0.938006 5.1965 0.674913C5.47823 0.41182 5.81706 0.280273 6.213 0.280273H13.5227C13.9187 0.280273 14.2575 0.41182 14.5392 0.674913C14.821 0.938006 14.9618 1.25443 14.9618 1.62418V8.45037C14.9618 8.82012 14.821 9.13655 14.5392 9.39964C14.2575 9.66273 13.9187 9.79428 13.5227 9.79428C13.1268 9.79428 12.7879 9.66273 12.5062 9.39964C12.2245 9.13655 12.0836 8.82012 12.0836 8.45037V4.84529Z" fill="white"/>
</svg>
