<svg width="73" height="73" viewBox="0 0 73 73" fill="none" xmlns="http://www.w3.org/2000/svg">
<path d="M55.8906 22.8114V59.3125H14.8281C11.6789 59.3125 9.125 56.7586 9.125 53.6094V17.1094C9.125 14.5897 11.1679 12.5469 13.6875 12.5469H26.2868C28.2898 12.5469 30.0589 13.8529 30.6475 15.768L30.9144 16.636C31.2086 17.593 32.0926 18.2466 33.0941 18.2466L51.3281 18.25C53.8489 18.25 55.8906 20.2917 55.8906 22.8114Z" fill="#FFA500"/>
<path opacity="0.3" d="M36.5001 72.992C50.7136 72.992 62.236 71.46 62.236 69.5701C62.236 67.6803 50.7136 66.1483 36.5001 66.1483C22.2865 66.1483 10.7642 67.6803 10.7642 69.5701C10.7642 71.46 22.2865 72.992 36.5001 72.992Z" fill="black"/>
<path d="M62.9853 26.2344H28.1734C24.3877 26.2344 21.1221 28.8932 20.3545 32.6013L14.8281 59.3125H56.2328C60.0185 59.3125 63.2842 56.6537 64.0518 52.9455L68.2425 32.6903C68.9314 29.3585 66.3878 26.2344 62.9853 26.2344Z" fill="#FFCE29"/>
<path opacity="0.3" d="M52.4686 26.2344H28.1732C24.3875 26.2344 21.1219 28.8932 20.3543 32.6013L17.9932 44.0167H17.9943C18.3844 44.0966 18.7722 44.1353 19.1555 44.1353C21.8029 44.1353 24.1765 42.2807 24.7354 39.5865L25.9422 33.7557C26.1589 32.7017 27.0976 31.9375 28.1732 31.9375H46.7654C49.9158 31.9375 52.4686 29.3848 52.4686 26.2344Z" fill="white"/>
<path opacity="0.15" d="M64.0518 52.9455L67.4554 36.4932C64.3632 35.8567 61.3519 37.8402 60.7143 40.9234L58.4662 51.7889C58.2483 52.844 57.3096 53.6094 56.234 53.6094H44.4844C41.334 53.6094 38.7812 56.1621 38.7812 59.3125H56.2328C60.0197 59.3125 63.2853 56.6537 64.0518 52.9455Z" fill="black"/>
<path d="M23.7012 36.1361L24.2646 33.41C24.6456 31.5657 26.2893 30.2266 28.1736 30.2266H32.4372" stroke="white" stroke-width="3" stroke-miterlimit="10" stroke-linecap="round" stroke-linejoin="round"/>
</svg>
